# AST/ASF file generated using VICON BodyLanguage
# -----------------------------------------------
:version 1.10
:name VICON
:units
  mass 1.0
  length 0.45
  angle deg
:documentation
   .ast/.asf automatically generated from VICON data using
   VICON BodyBuilder and BodyLanguage model FoxedUp or BRILLIANT.MOD
:root
   order TX TY TZ RX RY RZ
   axis XYZ
   position 0 0 0  
   orientation 0 0 0 
:bonedata
  begin
     id 1 
     name lhipjoint
     direction 0.78388 -0.462562 0.414208 
     length 3.01181 
     axis 0 0 0  XYZ
  end
  begin
     id 2 
     name lfemur
     direction 0.34202 -0.939693 0  
     length 6.04673  
     axis 0 0 20  XYZ
    dof rx ry rz
    limits (-160.0 20.0)
           (-70.0 70.0)
           (-60.0 70.0)
  end
  begin
     id 3 
     name ltibia
     direction 0.34202 -0.939693 0   
     length 7.211   
     axis 0 0 20   XYZ
    dof rx
    limits (-10.0 170.0)
  end
  begin
     id 4 
     name lfoot
     direction 0.121887 -0.334882 0.934344   
     length 2.13567   
     axis -90 7.62852e-016 20   XYZ
    dof rx rz
    limits (-45.0 90.0)
           (-70.0 20.0)
  end
  begin
     id 5 
     name ltoes
     direction 1.53555e-011 -4.2179e-011 1   
     length 1.05957   
     axis -90 7.62852e-016 20   XYZ
    dof rx
    limits (-90.0 20.0)
  end
  begin
     id 6 
     name rhipjoint
     direction -0.769387 -0.475875 0.426129   
     length 2.92756  
     axis 0 0 0  XYZ 
  end
  begin
     id 7 
     name rfemur
     direction -0.34202 -0.939693 0   
     length 6.35468   
     axis 0 0 -20   XYZ
    dof rx ry rz
    limits (-160.0 20.0)
           (-70.0 70.0)
           (-70.0 60.0)
  end
  begin
     id 8 
     name rtibia
     direction -0.34202 -0.939693 0   
     length 7.37886   
     axis 0 0 -20   XYZ
    dof rx
    limits (-10.0 170.0)
 end
 begin
     id 9 
     name rfoot
     direction -0.101763 -0.279592 0.954711   
     length 2.21478  
     axis -90 -7.62852e-016 -20   XYZ
    dof rx rz
    limits (-45.0 90.0)
           (-20.0 70.0)
  end
  begin
     id 10 
     name rtoes
     direction -1.53494e-011 -4.21851e-011 1   
     length 1.10506   
     axis -90 -7.62852e-016 -20   XYZ
    dof rx
    limits (-90.0 20.0)
  end
  begin
     id 11 
     name lowerback
     direction 0.00747405 0.999267 0.0375481   
     length 2.13259   
     axis 0 0 0   XYZ
    dof rx ry rz
    limits (-20.0 45.0)
           (-30.0 30.0)
           (-30.0 30.0)
  end
  begin
     id 12 
     name upperback
     direction 0.00661626 0.996177 0.0871029   
     length 2.10528   
     axis 0 0 0   XYZ
    dof rx ry rz
    limits (-20.0 45.0)
           (-30.0 30.0)
           (-30.0 30.0)
  end
  begin
     id 13 
     name thorax
     direction 0.00320659 0.997679 0.0680167   
     length 2.11338   
     axis 0 0 0   XYZ
    dof rx ry rz
    limits (-20.0 45.0)
           (-30.0 30.0)
           (-30.0 30.0)
  end
  begin
     id 14 
     name lowerneck
     direction 0.0374841 0.973033 0.227602   
     length 1.42765   
     axis 0 0 0   XYZ
    dof rx ry rz
    limits (-20.0 45.0)
           (-30.0 30.0)
           (-30.0 30.0)
  end
  begin
     id 15 
     name upperneck
     direction 0.00481585 0.989155 -0.146795   
     length 1.47593   
     axis 0 0 0   XYZ
    dof rx ry rz
    limits (-20.0 45.0)
           (-30.0 30.0)
           (-30.0 30.0)
  end
  begin
     id 16
     name head
     direction -0.00292522 0.997206 -0.0746423  
     length 1.48116  
     axis 0 0 0   XYZ
    dof rx ry rz
    limits (-20.0 45.0)
           (-30.0 30.0)
           (-30.0 30.0)
  end
  begin
     id 17 
     name lclavicle
     direction 0.951444 0.305606 0.0368784  
     length 3.01855  
     axis 0 0 0   XYZ
    dof ry rz
    limits (-20.0 10.0)
           (0.0 20.0)
  end
  begin
     id 18 
     name lhumerus
     direction 1 -4.48977e-011 2.61664e-027   
     length 5.52731   
     axis 180 -30 -90   XYZ
    dof rx ry rz
    limits (-60.0 90.0)
           (-90.0 90.0)
           (-90.0 90.0)
  end
  begin
     id 19
     name lradius
     direction 1 -4.48944e-011 8.22157e-027   
     length 3.11059   
     axis 180 -30 -90   XYZ
    dof rx
    limits (-10.0 170.0)
  end
  begin
     id 20
     name lwrist
     direction 1 -4.48976e-011 1.5779e-026   
     length 1.5553   
     axis -1.15221e-014 90 90   XYZ
    dof ry
    limits (-180.0 0.0)
 end
  begin
     id 21 
     name lhand
     direction 1 -4.49025e-011 3.1558e-026   
     length 0.419626   
     axis -2.01367e-014 90 90   XYZ
    dof rx rz
    limits (-90.0 90.0)
           (-45.0 45.0)
  end
  begin
     id 22 
     name lfingers
     direction 1 -4.4904e-011 6.31161e-026   
     length 0.338313   
     axis -4.02734e-014 90 90   XYZ
    dof rx
    limits (0.0 90.0)
  end
  begin
     id 23
     name lthumb
     direction 0.707107 -6.35004e-011 0.707107   
     length 0.485752   
     axis -90 45 2.85299e-015   XYZ
    dof rx rz
    limits (-45.0 45.0)
           (-45.0 45.0)
  end
  begin
     id 24 
     name rclavicle
     direction -0.968876 0.223791 0.105816   
     length 3.04177  
     axis 0 0 0   XYZ 
    dof ry rz
    limits (-10.0 20.0)
           (-20.0 0.0)
  end
  begin
     id 25 
     name rhumerus
     direction -1 -4.48962e-011 -1.01384e-027  
     length 5.25396   
     axis 180 30 90   XYZ
    dof rx ry rz
    limits (-90.0 60.0)
           (-90.0 90.0)
           (-90.0 90.0)
  end
  begin
     id 26 
     name rradius
     direction -1 -4.48955e-011 8.88542e-027   
     length 3.10567   
     axis 180 30 90   XYZ
    dof rx
    limits (-10.0 170.0)
  end
  begin
     id 27 
     name rwrist
     direction -1 -4.48994e-011 1.5779e-026   
     length 1.55283   
     axis -1.15221e-014 -90 -90   XYZ
    dof ry
    limits (-180.0 0.0)
  end
  begin
     id 28
     name rhand
     direction -1 -4.48891e-011 3.1558e-026   
     length 0.498676   
     axis -2.01367e-014 -90 -90   XYZ
    dof rx rz
    limits (-90.0 90.0)
           (-45.0 45.0)
  end
  begin
     id 29
     name rfingers
     direction -1 -4.48972e-011 6.31161e-026   
     length 0.402045   
     axis -4.02734e-014 -90 -90   XYZ
    dof rx
    limits (0.0 90.0)
  end
  begin
     id 30
     name rthumb
     direction -0.707107 -6.34849e-011 0.707107   
     length 0.577259   
     axis -90 -45 -2.85299e-015   XYZ
    dof rx rz
    limits (-45.0 45.0)
           (-45.0 45.0)
  end
:hierarchy
  begin
    root lhipjoint rhipjoint lowerback
    lhipjoint lfemur
    lfemur ltibia
    ltibia lfoot
    lfoot ltoes
    rhipjoint rfemur
    rfemur rtibia
    rtibia rfoot
    rfoot rtoes
    lowerback upperback
    upperback thorax
    thorax lowerneck lclavicle rclavicle
    lowerneck upperneck
    upperneck head
    lclavicle lhumerus
    lhumerus lradius
    lradius lwrist
    lwrist lhand lthumb
    lhand lfingers
    rclavicle rhumerus
    rhumerus rradius
    rradius rwrist
    rwrist rhand rthumb
    rhand rfingers
  end

#!OML:ASF H:\Pregnant\Project 1\Capture day 1\Session 1\femalepreg.ASF
:FULLY-SPECIFIED
:DEGREES
69
root 5.30511 15.7368 28.225 -183.955 -86.2956 -158.584
lowerback -27.5896 0.490614 -2.91935
upperback -6.70071 0.59103 2.30772
thorax 7.68885 -0.0278382 4.41775
lowerneck -13.2041 5.22949 7.39373
upperneck 23.8438 5.05206 0.730303
head 9.96189 2.9595 -0.3679
rclavicle -1.50082e-014 -7.95139e-015
rhumerus -1.52948 35.643 -97.468
rradius 144.775
rwrist -45.8414
rhand -41.9528 -24.8206
rfingers 7.12502
rthumb -14.8497 -54.2684
lclavicle -1.50082e-014 -7.95139e-015
lhumerus 3.96225 -28.5967 97.7976
lradius 144.558
lwrist 47.3219
lhand -42.3882 -9.87681
lfingers 7.12502
lthumb -15.2691 19.5396
rfemur -25.445 19.739 19.2881
rtibia 27.3151
rfoot -15.2087 -15.9729
rtoes -2.69654
lfemur 0 0 0
ltibia 0
lfoot 0 0
ltoes 0
70
root 5.30169 15.7355 28.2252 -184.005 -86.3293 -158.602
lowerback -27.684 0.45358 -2.95917
upperback -6.62734 0.555097 2.3636
thorax 7.81987 -0.0483344 4.49561
lowerneck -12.3426 5.05065 7.19588
upperneck 23.3935 5.02231 0.356719
head 9.63665 2.88049 -0.496948
rclavicle -1.80397e-014 1.59028e-015
rhumerus -1.1289 36.6659 -97.4948
rradius 145.166
rwrist -45.9832
rhand -41.9403 -25.2982
rfingers 7.12502
rthumb -14.8376 -54.747
lclavicle -1.80397e-014 1.59028e-015
lhumerus 4.40525 -29.2847 98.0101
lradius 144.709
lwrist 47.0683
lhand -43.5748 -11.275
lfingers 7.12502
lthumb -16.4118 18.0507
rfemur -25.3577 19.6994 19.3131
rtibia 27.3463
rfoot -15.2485 -15.9624
rtoes -2.70396
lfemur 0 0 0
ltibia 0
lfoot 0 0
ltoes 0
71
root 5.29856 15.7341 28.2254 -184.079 -86.3603 -158.598
lowerback -27.7792 0.420834 -2.99518
upperback -6.55307 0.524717 2.41002
thorax 7.95219 -0.0661988 4.56256
lowerneck -11.4912 4.89115 7.03516
upperneck 23.0198 4.99295 -0.000482697
head 9.34477 2.80899 -0.622457
rclavicle -4.52235e-015 -2.38542e-014
rhumerus -0.705962 37.7135 -97.4985
rradius 145.529
rwrist -45.9192
rhand -41.5117 -25.6627
rfingers 7.12502
rthumb -14.4247 -55.1415
lclavicle -4.52235e-015 -2.38542e-014
lhumerus 4.87679 -30.0185 98.1805
lradius 144.849
lwrist 46.7263
lhand -44.5281 -12.7473
lfingers 7.12502
lthumb -17.3295 16.5001
rfemur -25.2739 19.6582 19.3408
rtibia 27.3816
rfoot -15.287 -15.9465
rtoes -2.71685
lfemur 0 0 0
ltibia 0
lfoot 0 0
ltoes 0
72
root 5.29578 15.7328 28.2256 -184.162 -86.3908 -158.582
lowerback -27.8787 0.391689 -3.02243
upperback -6.47292 0.497844 2.44902
thorax 8.09341 -0.0824555 4.61753
lowerneck -10.6884 4.74796 6.90925
upperneck 22.7539 4.9614 -0.350544
head 9.10321 2.74214 -0.747111
rclavicle -4.57205e-015 -1.43125e-014
rhumerus -0.255892 38.7732 -97.4633
rradius 145.851
rwrist -45.706
rhand -40.8451 -25.6785
rfingers 7.12502
rthumb -13.7823 -55.202
lclavicle -4.57205e-015 -1.43125e-014
lhumerus 5.37519 -30.7867 98.307
lradius 144.968
lwrist 46.2583
lhand -45.2415 -14.2375
lfingers 7.12502
lthumb -18.016 14.9481
rfemur -25.1967 19.6166 19.3679
rtibia 27.4199
rfoot -15.3234 -15.9287
rtoes -2.7265
lfemur 0 0 0
ltibia 0
lfoot 0 0
ltoes 0
73
root 5.29339 15.7315 28.2257 -184.257 -86.4218 -158.55
lowerback -27.9788 0.357665 -3.041
upperback -6.38737 0.46273 2.48724
thorax 8.24231 -0.1027 4.66395
lowerneck -9.95553 4.62998 6.81075
upperneck 22.6188 4.9417 -0.691859
head 8.92277 2.68543 -0.867716
rclavicle 2.54941e-014 1.98785e-015
rhumerus 0.210586 39.8498 -97.398
rradius 146.125
rwrist -45.3999
rhand -40.008 -25.3702
rfingers 7.12502
rthumb -12.9755 -54.9467
lclavicle 2.54941e-014 1.98785e-015
lhumerus 5.88481 -31.5615 98.3765
lradius 145.06
lwrist 45.6467
lhand -45.7303 -15.6522
lfingers 7.12502
lthumb -18.4862 13.4894
rfemur -25.1262 19.5792 19.3939
rtibia 27.4601
rfoot -15.3588 -15.9133
rtoes -2.7215
lfemur 0 0 0
ltibia 0
lfoot 0 0
ltoes 0
74
root 5.29138 15.7304 28.2259 -184.345 -86.4547 -158.519
lowerback -28.0815 0.30865 -3.05389
upperback -6.29718 0.405547 2.53772
thorax 8.40018 -0.133756 4.71352
lowerneck -9.29266 4.54438 6.71535
upperneck 22.6115 4.95028 -1.02137
head 8.80119 2.64419 -0.9784
rclavicle -2.60905e-014 -1.47101e-014
rhumerus 0.690508 40.951 -97.2919
rradius 146.349
rwrist -45.0497
rhand -39.0792 -24.6769
rfingers 7.12502
rthumb -12.08 -54.3083
lclavicle -2.60905e-014 -1.47101e-014
lhumerus 6.39049 -32.3107 98.3936
lradius 145.121
lwrist 44.8893
lhand -46.0364 -16.9356
lfingers 7.12502
lthumb -18.7807 12.1777
rfemur -25.066 19.5384 19.4181
rtibia 27.5024
rfoot -15.3891 -15.9008
rtoes -2.73612
lfemur 0 0 0
ltibia 0
lfoot 0 0
ltoes 0
